<svg xmlns="http://www.w3.org/2000/svg" xmlns:xlink="http://www.w3.org/1999/xlink"><symbol id="dzen" viewBox="0 0 20 20"><g fill="none"><path d="M19.56 9.56a.44.44 0 0 0 .44-.48A10.03 10.03 0 0 0 10.92 0a.44.44 0 0 0-.48.44c.08 6.4.93 9.03 9.12 9.12Zm0 .88c-8.2.1-9.04 2.71-9.11 9.12a.44.44 0 0 0 .47.44A10.03 10.03 0 0 0 20 10.92a.44.44 0 0 0-.44-.48ZM9.05 0C4.25.46.44 4.27 0 9.08a.44.44 0 0 0 .44.48c8.17-.1 9.01-2.71 9.09-9.12A.44.44 0 0 0 9.05 0ZM.45 10.44c-.14-.01-.25.05-.33.14a.44.44 0 0 0-.12.34A10.03 10.03 0 0 0 9.1 20a.44.44 0 0 0 .43-.44c-.08-6.4-.92-9.02-9.09-9.12Z" fill="#F9FBFD"/></g></symbol><symbol id="icon-close" viewBox="0 0 20 20"><g fill="none"><path d="M.293 18.291a1 1 0 101.414 1.414L10 11.413l8.292 8.292a1 1 0 101.414-1.414l-8.292-8.292 8.292-8.292A1 1 0 1018.291.293L9.999 8.585 1.707.293A1 1 0 10.293 1.707L8.585 10 .293 18.291z"/></g></symbol><symbol id="logo" viewBox="0 0 70 38"><g fill="none"><path fill-rule="evenodd" clip-rule="evenodd" d="m.9 31.13 13.77-18.59 3.77 2.02L27.4 0 33 6.66l2.08-1.7 8.05 10.22 5.72-6.82L64.8 31.13 49.42 11.77l-2.34 8.13 2.15 6.42L35.45 7.36l-.15 6.47 7.81 17.3-14.61-26.8 4.22 14.48-5.91-14.09-3.25 9.37.65-6.12-8.12 22.07.98-9.29-3.38-3.72L.9 31.13Z" fill="#F9FBFD"/><path fill-rule="evenodd" clip-rule="evenodd" d="M69.44 34.03C47.64 16.43 13.71 40.63 0 31.3c15.07 13.22 50.3-9.14 69.44 2.73Z" fill="#F9FBFD"/><path fill-rule="evenodd" clip-rule="evenodd" d="M70 35.42c-17.1-10.9-42.54 4.26-55.58.75 14.13 6.86 40.43-8.33 55.58-.75Z" fill="#F9FBFD"/></g></symbol><symbol id="ok" viewBox="0 0 12 20"><g fill="none"><path d="M5.88 3.03c1.2 0 2.16.95 2.16 2.13S7.07 7.3 5.88 7.3c-1.2 0-2.17-.96-2.17-2.14 0-1.18.97-2.13 2.17-2.13Zm0 7.3a5.2 5.2 0 0 0 5.23-5.17A5.2 5.2 0 0 0 5.88 0 5.2 5.2 0 0 0 .63 5.16a5.2 5.2 0 0 0 5.24 5.16Zm2.11 4.2a9.95 9.95 0 0 0 3.04-1.24 1.5 1.5 0 0 0 .49-2.08 1.54 1.54 0 0 0-2.12-.48 6.73 6.73 0 0 1-7.05 0 1.54 1.54 0 0 0-2.12.48 1.5 1.5 0 0 0 .49 2.08c.94.59 1.97 1 3.04 1.24L.83 17.42a1.5 1.5 0 0 0 0 2.14 1.55 1.55 0 0 0 2.17 0l2.88-2.84 2.87 2.84c.6.59 1.57.59 2.17 0 .6-.6.6-1.55 0-2.14L8 14.53Z" fill="#F9FBFD"/></g></symbol><symbol id="reddit" viewBox="0 0 20 20"><g fill="none"><path d="M11.95 0c-.65 0-1.25.33-1.63.8-.39.46-.6 1.04-.76 1.64-.24.97-.32 2.04-.34 3.01-1.8.12-3.43.66-4.79 1.48a2.88 2.88 0 0 0-1.85-.71c-.72 0-1.4.32-1.92.96a3.49 3.49 0 0 0 .27 4.4 6 6 0 0 0-.12 1.13C.8 16.74 4.92 20 10 20c5.08 0 9.2-3.26 9.2-7.29a6 6 0 0 0-.13-1.12 3.49 3.49 0 0 0 .27-4.41 2.44 2.44 0 0 0-1.92-.96c-.64 0-1.3.25-1.85.71a10.53 10.53 0 0 0-4.77-1.48c.03-.9.1-1.82.27-2.52.11-.44.25-.76.39-.93.14-.17.25-.25.49-.25.52 0 .58.17.9.58.15.2.34.46.63.71.29.25.72.47 1.19.47V1.75c-.13 0-.16 0-.24-.08-.1-.08-.21-.26-.4-.5C13.69.72 12.99 0 11.96 0ZM17 .16c-1.2 0-2.19 1.1-2.19 2.47 0 1.36.98 2.47 2.2 2.47 1.2 0 2.18-1.1 2.18-2.47 0-1.36-.98-2.47-2.19-2.47Zm0 .88c.78 0 1.41.71 1.41 1.59 0 .88-.63 1.59-1.4 1.59-.79 0-1.42-.71-1.42-1.59 0-.88.64-1.59 1.41-1.59Zm-7 5.78c4.3 0 7.95 2.7 7.95 5.9 0 3.18-3.64 5.88-7.95 5.88-4.3 0-7.95-2.7-7.95-5.89 0-3.19 3.64-5.89 7.95-5.89Zm-7.4.8c.22 0 .45.05.66.16a7.18 7.18 0 0 0-1.82 2.3c-.3-.68-.21-1.52.15-1.97.26-.33.62-.5 1.02-.5Zm14.8 0c.39 0 .75.16 1.01.49.36.45.44 1.3.15 1.97a7.18 7.18 0 0 0-1.82-2.3c.21-.1.44-.16.65-.16ZM6.88 9.8c-.78 0-1.41.71-1.41 1.59 0 .87.63 1.59 1.4 1.59.79 0 1.42-.72 1.42-1.6 0-.87-.63-1.58-1.41-1.58Zm6.22 0c-.78 0-1.4.71-1.4 1.59 0 .87.62 1.59 1.4 1.59.78 0 1.41-.72 1.41-1.6 0-.87-.63-1.58-1.4-1.58Zm-6.98 5.4c.5 1.15 2.03 2.27 3.87 2.27 1.84 0 3.4-1.12 3.9-2.27-.9.65-2.33 1.1-3.9 1.1a6.73 6.73 0 0 1-3.87-1.1Z" fill="#F9FBFD"/></g></symbol></svg>